#!OML:ASF H:\Terrain\Patient Classification 1\Animal2\Wednesday\Animal2.ASF
:FULLY-SPECIFIED
:DEGREES
1026
root 17.3435 16.6703 3.31306 16.7533 32.8204 -1.76065
lowerback 19.108 -0.771171 2.74673
upperback -10.4283 -0.433198 -1.14321
thorax -23.1652 -0.728277 -2.75467
lowerneck 6.09767 5.37012 15.5015
upperneck -36.5338 4.59907 -22.0959
head -11.6222 2.99422 -12.3517
rclavicle 2.80783e-014 4.53229e-014
rhumerus 50.2477 -8.22756 -11.4852
rradius 49.3738
rwrist -26.1487
rhand -15.2451 4.71443
rfingers 7.12502
rthumb 10.9284 -24.9812
lclavicle 2.80783e-014 4.53229e-014
lhumerus 38.9322 27.5591 -0.769815
lradius 61.5123
lwrist 78.9991
lhand -37.8472 22.2292
lfingers 7.12502
lthumb -10.8919 51.9267
rfemur -44.1563 1.61607 6.73587
rtibia 50.4593
rfoot -25.7211 -4.06529
rtoes 22.8752
lfemur -49.5712 -4.35816 -13.5475
ltibia 56.281
lfoot -25.8906 -1.32068
ltoes -20.6489
1027
root 17.3685 16.6821 3.3608 16.5793 33.1269 -1.95564
lowerback 18.8393 -0.792236 2.88737
upperback -10.4919 -0.387115 -0.961242
thorax -23.0703 -0.70787 -2.64072
lowerneck 6.0984 5.39337 15.3535
upperneck -36.8142 4.59637 -22.1087
head -11.7456 3.00761 -12.3768
rclavicle -1.0138e-014 1.55052e-014
rhumerus 50.9699 -8.33049 -12.2198
rradius 48.9645
rwrist -25.5857
rhand -15.2271 4.89274
rfingers 7.12502
rthumb 10.9457 -24.8019
lclavicle -1.0138e-014 1.55052e-014
lhumerus 38.5194 27.691 -1.09701
lradius 61.5408
lwrist 78.6183
lhand -37.6851 22.3556
lfingers 7.12502
lthumb -10.7356 52.0613
rfemur -43.5013 1.58222 7.03817
rtibia 50.0463
rfoot -25.8927 -4.64389
rtoes 19.9517
lfemur -49.2273 -4.39138 -13.3757
ltibia 56.1004
lfoot -25.9598 -1.31472
ltoes -21.4837
1028
root 17.3945 16.6975 3.40919 16.5295 33.3707 -1.90475
lowerback 18.6418 -0.752498 2.92796
upperback -10.5589 -0.321029 -0.955919
thorax -23.0277 -0.685605 -2.68422
lowerneck 5.83175 5.35238 15.2633
upperneck -36.8221 4.51405 -22.0289
head -11.7217 2.96619 -12.3036
rclavicle -2.65874e-014 2.8625e-014
rhumerus 50.7705 -8.62098 -12.1084
rradius 49.2588
rwrist -26.0316
rhand -15.3579 4.84467
rfingers 7.12502
rthumb 10.8195 -24.8566
lclavicle -2.65874e-014 2.8625e-014
lhumerus 38.4568 27.8812 -1.11714
lradius 61.6206
lwrist 78.2839
lhand -37.5392 22.4308
lfingers 7.12502
lthumb -10.5948 52.1437
rfemur -42.8491 1.43628 7.09782
rtibia 49.6045
rfoot -26.1469 -4.68313
rtoes 18.8644
lfemur -48.7947 -4.44639 -13.4497
ltibia 55.8492
lfoot -26.1292 -1.35147
ltoes -21.2897
1029
root 17.4238 16.718 3.45443 16.5524 33.5982 -1.757
lowerback 18.4036 -0.704393 2.98702
upperback -10.5765 -0.25716 -1.03123
thorax -22.8913 -0.67427 -2.8303
lowerneck 5.57707 5.29049 15.2095
upperneck -37.0221 4.42166 -21.8922
head -11.7868 2.90528 -12.2468
rclavicle 3.32964e-014 -2.82274e-014
rhumerus 51.2429 -9.00726 -12.9123
rradius 48.8119
rwrist -25.626
rhand -15.3993 4.92079
rfingers 7.12502
rthumb 10.7796 -24.7826
lclavicle 3.32964e-014 -2.82274e-014
lhumerus 38.529 28.0787 -1.13961
lradius 61.7349
lwrist 78.0944
lhand -37.8131 22.3189
lfingers 7.12502
lthumb -10.859 52.0182
rfemur -42.252 1.08447 7.09563
rtibia 49.202
rfoot -26.2887 -4.3352
rtoes 19.3557
lfemur -48.3748 -4.5681 -13.6072
ltibia 55.5359
lfoot -26.2838 -1.45018
ltoes -21.5461
1030
root 17.4529 16.7374 3.48983 16.4759 33.8481 -1.8068
lowerback 18.3425 -0.721493 3.14092
upperback -10.6976 -0.213022 -0.933445
thorax -23.0152 -0.672079 -2.82358
lowerneck 5.48133 5.31593 15.1589
upperneck -37.1922 4.4451 -21.8698
head -11.8354 2.91408 -12.2481
rclavicle 7.95511e-014 1.15295e-014
rhumerus 51.277 -9.26153 -13.2033
rradius 48.9817
rwrist -25.6998
rhand -15.5248 5.01819
rfingers 7.12502
rthumb 10.6586 -24.6915
lclavicle 7.95511e-014 1.15295e-014
lhumerus 38.1694 28.0484 -1.37876
lradius 61.8483
lwrist 77.8392
lhand -37.5822 22.4978
lfingers 7.12502
lthumb -10.6363 52.2087
rfemur -41.7212 0.69562 7.28438
rtibia 48.8227
rfoot -26.418 -3.87988
rtoes 20.7119
lfemur -47.9981 -4.70493 -13.5747
ltibia 55.2063
lfoot -26.2957 -1.59387
ltoes -21.7616
1031
root 17.4809 16.7612 3.52489 16.4714 34.0129 -1.7484
lowerback 18.3348 -0.722773 3.19953
upperback -10.8027 -0.184483 -0.888793
thorax -23.1541 -0.668021 -2.81824
lowerneck 5.15756 5.40603 15.0965
upperneck -37.1849 4.55485 -21.7944
head -11.74 2.95864 -12.1732
rclavicle -2.65129e-014 7.95139e-016
rhumerus 51.4109 -9.49408 -13.4519
rradius 49.0739
rwrist -25.8155
rhand -16.0324 4.88562
rfingers 7.12502
rthumb 10.1689 -24.8486
lclavicle -2.65129e-014 7.95139e-016
lhumerus 37.8039 28.0889 -1.63211
lradius 61.9195
lwrist 77.413
lhand -37.3811 22.6026
lfingers 7.12502
lthumb -10.4423 52.3233
rfemur -41.2676 0.459383 7.3255
rtibia 48.4654
rfoot -26.4963 -3.83327
rtoes 21.7379
lfemur -47.6007 -4.89516 -13.6203
ltibia 54.852
lfoot -26.2927 -1.88015
ltoes -20.3772
1032
root 17.5091 16.7856 3.56319 16.4845 34.1504 -1.77898
lowerback 18.3044 -0.694097 3.47402
upperback -10.9071 -0.0758309 -0.965382
thorax -23.2744 -0.6802 -3.10979
lowerneck 4.7205 5.44004 15.0656
upperneck -37.0834 4.61159 -21.6021
head -11.6024 2.96104 -12.0292
rclavicle 1.40516e-014 -7.55382e-015
rhumerus 51.3241 -9.88655 -13.7353
rradius 49.3347
rwrist -25.9255
rhand -16.5659 4.52756
rfingers 7.12502
rthumb 9.65423 -25.2312
lclavicle 1.40516e-014 -7.55382e-015
lhumerus 37.8806 28.1536 -1.68737
lradius 61.8886
lwrist 76.6224
lhand -37.4591 22.901
lfingers 7.12502
lthumb -10.5175 52.6178
rfemur -40.8647 0.304497 7.42705
rtibia 48.0484
rfoot -26.5504 -4.07328
rtoes 21.1088
lfemur -47.2729 -5.04832 -13.5691
ltibia 54.5071
lfoot -26.3131 -2.04169
ltoes -19.5094
